<?xml version="1.0" encoding="utf-8"?>
<!-- Generator: Adobe Illustrator 25.0.0, SVG Export Plug-In . SVG Version: 6.00 Build 0)  -->
<svg version="1.1" id="Layer_1" xmlns="http://www.w3.org/2000/svg" xmlns:xlink="http://www.w3.org/1999/xlink" x="0px" y="0px"
	 viewBox="0 0 448 512" style="enable-background:new 0 0 448 512;" xml:space="preserve">
<style type="text/css">
	.st0{fill:#6699fc;}
</style>
<path class="st0" d="M364.2,83.8c-24.4-24.4-64-24.4-88.4,0l-184,184c-42.1,42.1-42.1,110.3,0,152.4s110.3,42.1,152.4,0l152-152
	c10.9-10.9,28.7-10.9,39.6,0s10.9,28.7,0,39.6l-152,152c-64,64-167.6,64-231.6,0s-64-167.6,0-231.6l184-184
	c46.3-46.3,121.3-46.3,167.6,0s46.3,121.3,0,167.6l-176,176c-28.6,28.6-75,28.6-103.6,0s-28.6-75,0-103.6l144-144
	c10.9-10.9,28.7-10.9,39.6,0s10.9,28.7,0,39.6l-144,144c-6.7,6.7-6.7,17.7,0,24.4s17.7,6.7,24.4,0l176-176
	C388.6,147.8,388.6,108.2,364.2,83.8L364.2,83.8z"/>
</svg>
