<?xml version="1.0" encoding="utf-8"?>
<!-- Generator: Adobe Illustrator 24.0.0, SVG Export Plug-In . SVG Version: 6.00 Build 0)  -->
<svg version="1.1" id="Layer_1" xmlns="http://www.w3.org/2000/svg" xmlns:xlink="http://www.w3.org/1999/xlink" x="0px" y="0px"
	 viewBox="0 0 800 800" style="enable-background:new 0 0 800 800;" xml:space="preserve">
<style type="text/css">
	.st0{enable-background:new    ;}
	.st1{fill:#2A5CC0;}
	.st2{fill:#6699FC;}
</style>
<g class="st0">
	<path class="st1" d="M627.1,601.6H450.1c-7.1,0-12.2-1.6-15.4-4.8c-3.2-3.2-4.8-8.3-4.8-15.4v-65.5c0-7.1,1.6-12.2,4.8-15.4
		c3.2-3.2,8.3-4.8,15.4-4.8h150.6c4.8,0,8.5-1.6,10.9-4.8c2.4-3.2,3.6-7,3.6-11.5c0-6.3-1.2-11-3.6-14c-2.4-3-6.1-4.7-10.9-5
		l-84-11.8c-26.1-3.7-47.1-12.3-63-25.8c-15.9-13.4-23.8-35.8-23.8-67.2V297c0-31.7,10.3-56.1,30.8-73.1
		c20.5-17,48.9-25.5,85.1-25.5h156.8c7.1,0,12.2,1.6,15.4,4.8c3.2,3.2,4.8,8.3,4.8,15.4v66.6c0,7.1-1.6,12.2-4.8,15.4
		c-3.2,3.2-8.3,4.8-15.4,4.8H572.2c-4.9,0-8.6,1.6-11.2,4.8c-2.6,3.2-3.9,7.2-3.9,12c0,4.9,1.3,9,3.9,12.3c2.6,3.4,6.3,5.2,11.2,5.6
		l83.4,11.2c26.1,3.7,47.2,12.3,63.3,25.8c16,13.4,24.1,35.8,24.1,67.2V503c0,31.7-10.4,56.1-31.1,73.1
		C691.2,593.1,662.9,601.6,627.1,601.6z"/>
	<path class="st2" d="M270.4,601.6h-90.7c-7.1,0-12.2-1.6-15.4-4.8c-3.2-3.2-4.8-8.3-4.8-15.4V306.5H77.2c-7.1,0-12.2-1.6-15.4-4.8
		c-3.2-3.2-4.8-8.3-4.8-15.4v-67.8c0-7.1,1.6-12.2,4.8-15.4c3.2-3.2,8.3-4.8,15.4-4.8h295.7c7.1,0,12.2,1.6,15.4,4.8
		c3.2,3.2,4.8,8.3,4.8,15.4v67.8c0,7.1-1.6,12.2-4.8,15.4c-3.2,3.2-8.3,4.8-15.4,4.8h-82.3v274.9c0,7.1-1.6,12.2-4.8,15.4
		C282.6,600,277.4,601.6,270.4,601.6z"/>
</g>
</svg>
